<svg width="24" height="24" viewBox="0 0 24 24" fill="none" xmlns="http://www.w3.org/2000/svg">
<path d="M23.9999 12C23.9999 14.875 22.9889 17.5137 21.3029 19.5803C21.2499 19.6454 21.1961 19.7098 21.1417 19.7737C20.9877 19.9547 20.8283 20.131 20.6639 20.3025C18.4799 22.5812 15.4056 24 11.9999 24C8.45572 24 5.27005 22.4632 3.07342 20.0198C2.93394 19.8647 2.7985 19.7059 2.66714 19.5438C2.64759 19.5197 2.6282 19.4955 2.60881 19.4712C0.975853 17.4212 -0.00012207 14.8246 -0.00012207 12C-0.00012207 5.37254 5.37255 0 11.9999 0C18.6273 0 23.9999 5.37254 23.9999 12Z" fill="#3EB5FF"/>
<path d="M20.6639 20.3025C18.4799 22.5812 15.4056 24 11.9999 24C8.45571 24 5.27004 22.4632 3.07341 20.0198L8.4763 17.4545C8.4763 17.4545 8.61833 15.9387 8.20393 15.4178C7.78953 14.8968 7.7539 14.1467 7.76187 13.8784C7.76969 13.61 7.62765 13.6969 7.50139 13.6811C7.37499 13.6653 7.26451 13.4915 7.18559 13.1442C7.10668 12.797 6.79088 12.3232 6.55398 11.7864C6.31725 11.2497 6.31725 9.87598 6.47507 9.68658C6.63304 9.49705 6.83822 9.90755 6.93291 9.89175C7.02762 9.87598 6.77509 8.64447 6.6804 8.10772C6.58556 7.57096 6.51656 6.24073 6.56977 5.63092C6.62312 5.02111 7.30989 4.37568 7.38686 4.30474C7.46381 4.23364 7.27443 4.25138 7.20333 4.20403C7.13223 4.15669 7.67108 3.68306 8.03229 3.36336C8.39334 3.04365 8.85524 3.19155 9.0033 3.2153C9.1512 3.23905 9.45317 2.70604 9.8321 2.55814C10.211 2.41009 10.4715 2.45158 10.8446 2.45743C11.2175 2.46345 11.2709 2.15546 11.3478 2.32727C11.4248 2.49892 11.0104 2.56401 11.0636 2.63511C11.1169 2.70606 11.5491 2.6055 11.78 2.55816C12.0108 2.51081 12.4077 2.45159 12.976 2.40423C13.5443 2.35675 14.0298 2.59363 14.1247 2.73568C14.2193 2.87787 14.7167 2.78318 14.7167 2.85412C14.7167 2.92523 14.2429 2.94883 14.314 3.06726C14.3851 3.18571 15.4508 3.3515 15.8652 3.61198C16.2796 3.87246 16.5047 3.94357 17.002 5.10397C17.4994 6.26451 17.3691 7.34208 17.3217 8.18277C17.2744 9.02345 16.9073 9.76943 17.0375 9.84055C17.1678 9.91163 17.2625 9.55631 17.381 9.58005C17.4994 9.60365 17.5468 10.1602 17.5468 10.5746C17.5468 10.9892 17.4994 11.5221 17.0848 12.1141C16.6704 12.7062 16.7928 13.3733 16.6034 13.618C16.4139 13.8627 16.2565 13.3214 16.1692 14.1074C16.1574 14.2132 16.1415 14.3163 16.1238 14.4134C16.0629 14.7459 15.9236 15.0576 15.7304 15.335C15.0381 16.3293 15.5377 17.4861 15.5377 17.4861L20.6639 20.3025Z" fill="#F2F2F2"/>
</svg>
